# xmcd
#
# Track frame offsets: 
#        183
#        13078
#        23665
#        49680
#        64838
#        72770
#        81853
#        101775
#        115678
#        130188
#        164798
#        179018
#        194310
#        219138
#        231643
#        271860
#        288690
#
# Disc length: 4087 seconds
#
# Revision: 4
# Processed by: cddbd v1.5.2PL0 Copyright (c) Steve Scherf et al.
# Submitted via: ExactAudioCopyFreeDBPlugin 1.0
#
DISCID=fc0ff511
DTITLE=OVCHINIKOV, Vladimir - Études Et Tableaux, Op. 33 Et 39 - Vladi
DTITLE=mir Ovchinikov
DYEAR=1989
DGENRE=Classical
TTITLE0=Études -Tableaux, Op 33 - (1) Allegro Ma Non Troppo
TTITLE1=Études -Tableaux, Op 33 - (2) Allegro
TTITLE2=Études -Tableaux, Op 33 - (3) Grave
TTITLE3=Études -Tableaux, Op 33 - (4) Moderato
TTITLE4=Études -Tableaux, Op 33 - (5) Non Allegro - Presto
TTITLE5=Études -Tableaux, Op 33 - (6) Allegro Con Fuoco
TTITLE6=Études -Tableaux, Op 33 - (7) Moderato
TTITLE7=Études -Tableaux, Op 33 - (8) Grave
TTITLE8=Études -Tableaux, Op 39 - (1) Allegro Agitato
TTITLE9=Études -Tableaux, Op 39 - (2) Lento Assai
TTITLE10=Études -Tableaux, Op 39 - (3) Allegro Molto
TTITLE11=Études -Tableaux, Op 39 - (4) Allegro Assai
TTITLE12=Études -Tableaux, Op 39 - (5) Appassionato
TTITLE13=Études -Tableaux, Op 39 - (6) Allegro
TTITLE14=Études -Tableaux, Op 39 - (7) Lento
TTITLE15=Études -Tableaux, Op 39 - (8) Allegro Moderato
TTITLE16=Études -Tableaux, Op 39 - (9) Allegro Moderato
EXTD=By Jem YEAR: 1989
EXTT0=Op 33 - 1911
EXTT1=Op 33 - 1911
EXTT2=Op 33 - 1911
EXTT3=Op 33 - 1911
EXTT4=Op 33 - 1911
EXTT5=Op 33 - 1911
EXTT6=Op 33 - 1911
EXTT7=Op 33 - 1911
EXTT8=Op 39 - 1917
EXTT9=Op 39 - 1917
EXTT10=Op 39 - 1917
EXTT11=Op 39 - 1917
EXTT12=Op 39 - 1917
EXTT13=Op 39 - 1917
EXTT14=Op 39 - 1917
EXTT15=Op 39 - 1917
EXTT16=Op 39 - 1917
PLAYORDER=
